<?xml version="1.0" encoding="UTF-8"?>
<svg viewBox="0 0 246.99532 333.5603" xmlns="http://www.w3.org/2000/svg">
 <g transform="translate(-241.96 -357.14)">
  <path transform="translate(-26.731)" d="m513.69 561.96a121.5 121.5 0 1 1 -243 0 121.5 121.5 0 1 1 243 0z" fill="#784421" stroke="#000" stroke-linecap="round" stroke-linejoin="round" stroke-width="4"/>
  <path transform="translate(215.23 337.26)" d="m150.22 103.22c-24.505 0-47.314 7.2551-66.406 19.75 8.6512 30.482 36.665 52.844 69.906 52.844 31.773 0 58.799-20.421 68.688-48.844-20.186-14.939-45.165-23.75-72.188-23.75z" fill-opacity=".31373"/>
  <path transform="matrix(.46795 0 0 .46795 153.39 345.79)" d="m440.04 422.84a49.103 49.103 0 1 1 -98.205 0 49.103 49.103 0 1 1 98.205 0z" fill-opacity=".31373"/>
  <path d="m379.99 531.79c-9.6746-16.757-27.332-24.671-31.643-22.182-4.6977 2.7122-6.259 21.722 3.4156 38.479 7.4963 12.984 17.69 21.896 25.527 23.151-3.896 5.5624-4.0272 14.087 0.2703 21.531 1.6524 2.862 3.751 5.2306 6.1207 7.0389-0.90905-6.977 1.611-13.56 7.0886-16.722s12.439-2.0521 18.026 2.2222c-0.38095-2.9572-1.3556-5.973-3.0085-8.8358-4.2974-7.4434-11.766-11.581-18.538-10.984 2.8314-7.4147 0.23746-20.714-7.2589-33.698z" fill="#b7bec8" stroke="#000" stroke-linejoin="round" stroke-width="4"/>
  <path d="m365.46 440.47c-12.925 0-25.375 2.037-37.062 5.7812 10.514-2.4554 21.602-3.7812 33.062-3.7812 31.438 0 60.108 9.8781 81.688 26.094-21.064-17.541-48.154-28.094-77.688-28.094zm115.06 82.375c1.5943 6.4882 2.4375 13.187 2.4375 20.062 1e-5 55.444-54.433 100.44-121.5 100.44-56.084 2e-5 -103.31-31.459-117.28-74.188 3.7241 63.725 56.628 114.31 121.28 114.31 67.067 0 121.5-54.433 121.5-121.5 0-13.683-2.2614-26.849-6.4375-39.125z" fill-opacity=".31373"/>
  <path transform="translate(215.23 337.26)" d="m97.562 21.875c-11.055 0-20.031 8.9759-20.031 20.031 0 7.1546 3.758 13.426 9.4062 16.969-5.9711 10.554-9.4062 22.735-9.4062 35.719 0 40.134 32.553 72.719 72.688 72.719s72.719-32.584 72.719-72.719c0-12.984-3.4352-25.165-9.4062-35.719 5.6357-3.5451 9.4062-9.8237 9.4062-16.969 0-11.055-8.9759-20.031-20.031-20.031-7.145 0-13.392 3.7706-16.938 9.4062-10.56-5.9794-22.757-9.4062-35.75-9.4062s-25.161 3.4298-35.719 9.4062c-3.5451-5.6357-9.7925-9.4062-16.938-9.4062z" fill="#784421" stroke="#000" stroke-linecap="round" stroke-linejoin="round" stroke-width="4"/>
  <path d="m424.33 614.22c-30.406 0-55.094 24.688-55.094 55.094 0 6.2866 1.0577 12.308 3 17.938h104.16c1.9423-5.6294 3-11.651 3-17.938 0-30.406-24.657-55.094-55.062-55.094z" fill="#784421" stroke="#000" stroke-linecap="round" stroke-linejoin="round" stroke-width="4"/>
  <path d="m314.14 614.22c-30.406 0-55.062 24.688-55.062 55.094 0 6.2866 1.0577 12.308 3 17.938h104.16c1.9423-5.6294 3-11.651 3-17.938 0-30.406-24.688-55.094-55.094-55.094z" fill="#784421" stroke="#000" stroke-linecap="round" stroke-linejoin="round" stroke-width="4"/>
  <path transform="matrix(2.1667 0 0 2.1667 -441.17 -478.21)" d="m371.42 413.4a9.4428 9.4428 0 1 1 -18.886 0 9.4428 9.4428 0 1 1 18.886 0z" fill="#fff" stroke="#000" stroke-linecap="round" stroke-linejoin="round" stroke-width="1.8462"/>
  <path transform="matrix(2.1667 0 0 2.1667 -395.84 -478.21)" d="m371.42 413.4a9.4428 9.4428 0 1 1 -18.886 0 9.4428 9.4428 0 1 1 18.886 0z" fill="#fff" stroke="#000" stroke-linecap="round" stroke-linejoin="round" stroke-width="1.8462"/>
  <path transform="translate(13.006 -5.5105)" d="m377.08 426.93a6.61 6.61 0 1 1 -13.22 0 6.61 6.61 0 1 1 13.22 0z"/>
  <path d="m349.51 461.23c5.2153-5.5629 27.111-5.5878 31.987 0.69537 4.6301 5.9664-6.9537 22.947-15.993 22.252-9.0132-0.69332-20.873-17.743-15.993-22.947z" fill-rule="evenodd"/>
  <path transform="matrix(.84286 0 0 1 10.898 -.5)" d="m354 671.86a17.5 17.5 0 1 1 -35 0 17.5 17.5 0 1 1 35 0z" fill="#502d16" stroke="#000" stroke-linecap="round" stroke-linejoin="round" stroke-width="4"/>
  <path transform="matrix(.84286 0 0 1 47.898 -.5)" d="m354 671.86a17.5 17.5 0 1 1 -35 0 17.5 17.5 0 1 1 35 0z" fill="#502d16" stroke="#000" stroke-linecap="round" stroke-linejoin="round" stroke-width="4"/>
  <path transform="matrix(.84286 0 0 1 30.398 -.5)" d="m354 671.86a17.5 17.5 0 1 1 -35 0 17.5 17.5 0 1 1 35 0z" fill="#502d16" stroke="#000" stroke-linecap="round" stroke-linejoin="round" stroke-width="4"/>
  <path transform="matrix(.84286 0 0 1 124.4 -.5)" d="m354 671.86a17.5 17.5 0 1 1 -35 0 17.5 17.5 0 1 1 35 0z" fill="#502d16" stroke="#000" stroke-linecap="round" stroke-linejoin="round" stroke-width="4"/>
  <path transform="matrix(.84286 0 0 1 161.4 -.5)" d="m354 671.86a17.5 17.5 0 1 1 -35 0 17.5 17.5 0 1 1 35 0z" fill="#502d16" stroke="#000" stroke-linecap="round" stroke-linejoin="round" stroke-width="4"/>
  <path transform="matrix(.84286 0 0 1 143.9 -.5)" d="m354 671.86a17.5 17.5 0 1 1 -35 0 17.5 17.5 0 1 1 35 0z" fill="#502d16" stroke="#000" stroke-linecap="round" stroke-linejoin="round" stroke-width="4"/>
  <path transform="translate(241.96 357.14)" d="m122.84 158.12c3.0687 3.4566 6.1016 7.5859 8.8125 12.281 9.2115 15.955 11.454 31.93 5 35.656s-19.164-6.2015-28.375-22.156c-1.8073-3.1303-3.3363-6.2422-4.5938-9.2812 1.0524 5.2634 2.9959 10.893 6.125 16.312 7.4963 12.984 17.694 21.901 25.531 23.156-3.896 5.5624-4.0475 14.088 0.25 21.531 1.6524 2.862 3.7553 5.2229 6.125 7.0312-0.90906-6.977 1.6161-13.556 7.0938-16.719s12.444-2.0555 18.031 2.2188c-0.38095-2.9572-1.3784-5.9496-3.0312-8.8125-4.2974-7.4434-11.759-11.597-18.531-11 2.8314-7.4147 0.24632-20.704-7.25-33.688-4.1507-7.1892-9.7825-12.721-15.188-16.531z" fill-opacity=".31373"/>
  <path transform="matrix(.46795 0 0 .46795 217.45 346.14)" d="m440.04 422.84a49.103 49.103 0 1 1 -98.205 0 49.103 49.103 0 1 1 98.205 0z" fill-opacity=".31373"/>
  <path transform="matrix(.40526 -.23397 .23397 .40526 75.173 459.1)" d="m440.04 422.84a49.103 49.103 0 1 1 -98.205 0 49.103 49.103 0 1 1 98.205 0z" fill="#784421" stroke="#000" stroke-linecap="round" stroke-linejoin="round" stroke-width="8.548"/>
  <path transform="matrix(.40526 .23397 -.23397 .40526 337.18 276.16)" d="m440.04 422.84a49.103 49.103 0 1 1 -98.205 0 49.103 49.103 0 1 1 98.205 0z" fill="#784421" stroke="#000" stroke-linecap="round" stroke-linejoin="round" stroke-width="8.548"/>
  <path transform="matrix(.22594 -.39134 .44538 .25714 -39.452 510.26)" d="m354 671.86a17.5 17.5 0 1 1 -35 0 17.5 17.5 0 1 1 35 0z" fill="#502d16" stroke="#000" stroke-linecap="round" stroke-linejoin="round" stroke-width="7.6176"/>
  <path transform="matrix(.22594 -.39134 .44538 .25714 -29.533 493.08)" d="m354 671.86a17.5 17.5 0 1 1 -35 0 17.5 17.5 0 1 1 35 0z" fill="#502d16" stroke="#000" stroke-linecap="round" stroke-linejoin="round" stroke-width="7.6176"/>
  <path transform="matrix(.22594 -.39134 .44538 .25714 -30.242 504.1)" d="m354 671.86a17.5 17.5 0 1 1 -35 0 17.5 17.5 0 1 1 35 0z" fill="#502d16" stroke="#000" stroke-linecap="round" stroke-linejoin="round" stroke-width="7.6176"/>
  <path transform="matrix(-.22594 -.39134 -.44538 .25714 769.42 510.7)" d="m354 671.86a17.5 17.5 0 1 1 -35 0 17.5 17.5 0 1 1 35 0z" fill="#502d16" stroke="#000" stroke-linecap="round" stroke-linejoin="round" stroke-width="7.6176"/>
  <path transform="matrix(-.22594 -.39134 -.44538 .25714 759.5 493.52)" d="m354 671.86a17.5 17.5 0 1 1 -35 0 17.5 17.5 0 1 1 35 0z" fill="#502d16" stroke="#000" stroke-linecap="round" stroke-linejoin="round" stroke-width="7.6176"/>
  <path transform="matrix(-.22594 -.39134 -.44538 .25714 760.21 504.54)" d="m354 671.86a17.5 17.5 0 1 1 -35 0 17.5 17.5 0 1 1 35 0z" fill="#502d16" stroke="#000" stroke-linecap="round" stroke-linejoin="round" stroke-width="7.6176"/>
  <path d="m418.38 367.64c-4.0176 0-7.5255 2.1162-9.5272 5.2795 6.1435 4.138 11.433 9.422 15.568 15.568 3.1532-2.0037 5.2547-5.5419 5.2547-9.5522 0-6.2334-5.062-11.296-11.295-11.296z" fill="#502d16" stroke="#000" stroke-linecap="round" stroke-linejoin="round" stroke-width="4"/>
  <path transform="translate(-21.409 -5.5105)" d="m377.08 426.93a6.61 6.61 0 1 1 -13.22 0 6.61 6.61 0 1 1 13.22 0z"/>
  <path d="m312.75 367.64c4.0176 0 7.5255 2.1162 9.5272 5.2795-6.1435 4.138-11.433 9.422-15.568 15.568-3.1532-2.0037-5.2547-5.5419-5.2547-9.5522 0-6.2334 5.062-11.296 11.295-11.296z" fill="#502d16" stroke="#000" stroke-linecap="round" stroke-linejoin="round" stroke-width="4"/>
  <path transform="translate(215.23 337.26)" d="m217.81 67.812c0.74197 4.1512 1.125 8.4174 1.125 12.781 1e-5 40.134-32.584 72.719-72.719 72.719-30.638 0-56.839-19.003-67.531-45.844 6.0822 34 35.792 59.844 71.531 59.844 40.134 0 72.719-32.584 72.719-72.719 0-9.4625-1.824-18.491-5.125-26.781z" fill-opacity=".31373"/>
  <path transform="translate(240.7 356.91)" d="m121.75 165.81a3.5 3.5 0 1 1 -7 0 3.5 3.5 0 1 1 7 0z"/>
 </g>
</svg>
